# xmcd CD database file
#
# Track frame offsets:
#	150
#	10816
#	28593
#	49349
#	66996
#	80368
#	94391
#	105019
#	120252
#	136068
#	149943
#	161772
#	173325
#	184338
#	196176
#	210948
#	229228
#	245251
#	257517
#	273347
#
# Disc length: 3755 seconds
#
# Revision: 0
# Processed by: cddbd v1.5.2PL0 Copyright (c) Steve Scherf et al.
# Submitted via: CDex 1.70beta2
#
DISCID=0a0ea914
DTITLE=Various Artist - Absolute Country
DYEAR=2006
DGENRE=Country
TTITLE0=Dwight Yoakam - Crazy Little Thing Called Love
TTITLE1=Randy Travis - It's Just a Matter of Time
TTITLE2=K D Lang - Constant Craving
TTITLE3=Linda Rondstadt - Blue Bayou
TTITLE4=Gram Parsons - That's All It Took
TTITLE5=Tom Paxton - The Last Thing On My Mind
TTITLE6=The Everly Brothers - I'm On My Way Home Again
TTITLE7=George Jones - Real Deal
TTITLE8=Maria Muldaur - My Tennessee Mountain Home
TTITLE9=Glen Campbell - Tennessee
TTITLE10=Carlene Carter - My Dixie Darlin'
TTITLE11=Travis Tritt - Here's A Quarter (Call Someone Who Cares)
TTITLE12=The Dillards - Somebody Touched Me
TTITLE13=Gene Parsons - Drunkard's Dream
TTITLE14=Eric Weissberg and Deliverance - Duelling Banjos
TTITLE15=John Michael Montgomery - I Love The Way You Love Me
TTITLE16=Beth Nielsen Chapman - Happy Girl
TTITLE17=Curtis Day - The Cowboy Stomp
TTITLE18=Tracy Lawrence - How A Cowgirl Says Goodbye
TTITLE19=Gillian Welch - Honey Now
EXTD=YEAR: 2006
EXTT0=
EXTT1=
EXTT2=
EXTT3=
EXTT4=
EXTT5=
EXTT6=
EXTT7=
EXTT8=
EXTT9=
EXTT10=
EXTT11=
EXTT12=
EXTT13=
EXTT14=
EXTT15=
EXTT16=
EXTT17=
EXTT18=
EXTT19=
PLAYORDER=
